<mxfile host="65bd71144e">
    <diagram id="_oDTlDN2bsvoXDYxoDGB" name="Page-1">
        <mxGraphModel dx="1377" dy="1147" grid="1" gridSize="10" guides="1" tooltips="1" connect="1" arrows="1" fold="1" page="1" pageScale="1" pageWidth="827" pageHeight="1169" math="0" shadow="0">
            <root>
                <mxCell id="0"/>
                <mxCell id="1" parent="0"/>
                <mxCell id="kqoxJH0lnDRRDKYpfLKR-3" value="" style="edgeStyle=orthogonalEdgeStyle;rounded=0;orthogonalLoop=1;jettySize=auto;html=1;" parent="1" source="kqoxJH0lnDRRDKYpfLKR-1" target="kqoxJH0lnDRRDKYpfLKR-2" edge="1">
                    <mxGeometry relative="1" as="geometry"/>
                </mxCell>
                <mxCell id="3" style="edgeStyle=none;html=1;" edge="1" parent="1" source="kqoxJH0lnDRRDKYpfLKR-1" target="2">
                    <mxGeometry relative="1" as="geometry"/>
                </mxCell>
                <mxCell id="kqoxJH0lnDRRDKYpfLKR-1" value="" style="html=1;outlineConnect=0;whiteSpace=wrap;fillColor=#99ffff;shape=mxgraph.archimate3.application;appType=comp;archiType=square;" parent="1" vertex="1">
                    <mxGeometry x="80" y="120" width="150" height="75" as="geometry"/>
                </mxCell>
                <mxCell id="kqoxJH0lnDRRDKYpfLKR-2" value="" style="html=1;outlineConnect=0;whiteSpace=wrap;fillColor=#99ffff;shape=mxgraph.archimate3.application;appType=comp;archiType=square;comic=1;" parent="1" vertex="1">
                    <mxGeometry x="310" y="120" width="150" height="75" as="geometry"/>
                </mxCell>
                <mxCell id="5" value="" style="edgeStyle=none;html=1;" edge="1" parent="1" source="2" target="4">
                    <mxGeometry relative="1" as="geometry"/>
                </mxCell>
                <mxCell id="2" value="" style="html=1;outlineConnect=0;whiteSpace=wrap;fillColor=#99ffff;shape=mxgraph.archimate3.application;appType=interface;archiType=square;comic=0;" vertex="1" parent="1">
                    <mxGeometry x="80" y="280" width="150" height="75" as="geometry"/>
                </mxCell>
                <mxCell id="4" value="" style="ellipse;shape=cloud;whiteSpace=wrap;html=1;fillColor=#99ffff;" vertex="1" parent="1">
                    <mxGeometry x="95" y="432.5" width="120" height="80" as="geometry"/>
                </mxCell>
                <mxCell id="6" value="" style="html=1;outlineConnect=0;whiteSpace=wrap;fillColor=#99ffff;shape=mxgraph.archimate3.application;appType=comp;archiType=square;comic=1;jiggle=6;" vertex="1" parent="1">
                    <mxGeometry x="-340" y="250" width="150" height="75" as="geometry"/>
                </mxCell>
                <mxCell id="7" value="" style="html=1;outlineConnect=0;whiteSpace=wrap;fillColor=#99ffff;shape=mxgraph.archimate3.process;comic=0;jiggle=6;" vertex="1" parent="1">
                    <mxGeometry x="-330" y="380" width="150" height="75" as="geometry"/>
                </mxCell>
                <mxCell id="8" value="" style="html=1;outlineConnect=0;whiteSpace=wrap;fillColor=#99ffff;shape=mxgraph.archimate3.application;appType=comp;archiType=square;comic=1;jiggle=6;" vertex="1" parent="1">
                    <mxGeometry x="-340" y="250" width="150" height="75" as="geometry"/>
                </mxCell>
                <mxCell id="9" value="" style="html=1;outlineConnect=0;whiteSpace=wrap;fillColor=#99ffff;shape=mxgraph.archimate3.application;appType=comp;archiType=square;comic=1;jiggle=6;" vertex="1" parent="1">
                    <mxGeometry x="-340" y="250" width="150" height="75" as="geometry"/>
                </mxCell>
                <mxCell id="10" value="" style="html=1;outlineConnect=0;whiteSpace=wrap;fillColor=#99ffff;shape=mxgraph.archimate3.application;appType=comp;archiType=square;comic=0;jiggle=6;" vertex="1" parent="1">
                    <mxGeometry x="-340" y="250" width="150" height="75" as="geometry"/>
                </mxCell>
                <mxCell id="11" value="" style="html=1;outlineConnect=0;whiteSpace=wrap;fillColor=#99ffff;shape=mxgraph.archimate3.service;comic=0;jiggle=6;" vertex="1" parent="1">
                    <mxGeometry x="-320" y="80" width="60" height="35" as="geometry"/>
                </mxCell>
                <mxCell id="12" value="" style="html=1;outlineConnect=0;whiteSpace=wrap;fillColor=#99ffff;shape=mxgraph.archimate3.application;appType=interaction;archiType=rounded;comic=0;jiggle=6;" vertex="1" parent="1">
                    <mxGeometry x="-330" y="610" width="150" height="75" as="geometry"/>
                </mxCell>
                <mxCell id="13" value="" style="html=1;outlineConnect=0;whiteSpace=wrap;fillColor=#99ffff;shape=mxgraph.archimate3.function;comic=0;jiggle=6;" vertex="1" parent="1">
                    <mxGeometry x="-130" y="110" width="75" height="75" as="geometry"/>
                </mxCell>
            </root>
        </mxGraphModel>
    </diagram>
</mxfile>